<svg xmlns="http://www.w3.org/2000/svg" version="1.1" xmlns:xlink="http://www.w3.org/1999/xlink"
  xmlns:svgjs="http://svgjs.dev/svgjs" width="1000" height="368" viewBox="0 0 1000 368">
  <g transform="matrix(1,0,0,1,-0.6060606060606801,0.43605251484009955)"><svg viewBox="0 0 396 146"
      data-background-color="#f9e17e" preserveAspectRatio="xMidYMid meet" height="368" width="1000"
      xmlns="http://www.w3.org/2000/svg" xmlns:xlink="http://www.w3.org/1999/xlink">
      <g id="tight-bounds" transform="matrix(1,0,0,1,0.24000000000003752,-0.1729990955615648)"><svg
          viewBox="0 0 395.5199999999999 146.34599819112313" height="146.34599819112313" width="395.5199999999999">
          <g><svg viewBox="0 0 660.6090545840707 244.43135999999996" height="146.34599819112313"
              width="395.5199999999999">
              <g transform="matrix(1,0,0,1,265.08905458407077,24.382407929203552)"><svg
                  viewBox="0 0 395.5199999999999 195.66654414159285" height="195.66654414159285"
                  width="395.5199999999999">
                  <g id="textblocktransform"><svg viewBox="0 0 395.5199999999999 195.66654414159285"
                      height="195.66654414159285" width="395.5199999999999" id="textblock">
                      <g><svg viewBox="0 0 395.5199999999999 87.50442477876103" height="87.50442477876103"
                          width="395.5199999999999">
                          <g transform="matrix(1,0,0,1,0,0)"><svg width="395.5199999999999" viewBox="5.25 -35 158.19 35"
                              height="87.50442477876103" data-palette-color="#f9e17e">
                              <path
                                d="M5.25 0L5.25-35 10.25-35 10.25-4.35 29.2-4.35 29.2 0 5.25 0ZM39.95-4.35L60.35-4.35 60.35 0 34.95 0 34.95-35 59.65-35 59.65-30.65 39.95-30.65 39.95-19.9 57.5-19.9 57.5-15.65 39.95-15.65 39.95-4.35ZM94.6 0L90.75-8.75 72.15-8.75 68.3 0 63.15 0 79-35 83.95-35 99.84 0 94.6 0ZM73.9-12.75L89-12.75 81.45-29.9 73.9-12.75ZM128.59-35L133.59-35 118.24 0 113.29 0 97.89-35 103.29-35 115.89-6.25 128.59-35ZM143.04-4.35L163.44-4.35 163.44 0 138.04 0 138.04-35 162.74-35 162.74-30.65 143.04-30.65 143.04-19.9 160.59-19.9 160.59-15.65 143.04-15.65 143.04-4.35Z"
                                opacity="1" transform="matrix(1,0,0,1,0,0)" fill="#f9e17e" class="wordmark-text-0"
                                data-fill-palette-color="primary" id="text-0"></path>
                            </svg></g>
                        </svg></g>
                      <g transform="matrix(1,0,0,1,0,108.16211936283182)"><svg
                          viewBox="0 0 245.40347060859241 87.50442477876103" height="87.50442477876103"
                          width="245.40347060859241">
                          <g transform="matrix(1,0,0,1,0,0)"><svg width="245.40347060859241"
                              viewBox="5.25 -35.4 100.4 35.8" height="87.50442477876103" data-palette-color="#f9e17e">
                              <path
                                d="M5.25 0L5.25-35 10.25-35 10.25-4.35 29.2-4.35 29.2 0 5.25 0ZM50.1 0.4Q44.8 0.4 40.55-1.93 36.3-4.25 33.87-8.35 31.45-12.45 31.45-17.5L31.45-17.5Q31.45-22.55 33.87-26.65 36.3-30.75 40.55-33.08 44.8-35.4 50.1-35.4L50.1-35.4Q55.35-35.4 59.6-33.08 63.85-30.75 66.25-26.68 68.65-22.6 68.65-17.5L68.65-17.5Q68.65-12.4 66.25-8.33 63.85-4.25 59.6-1.93 55.35 0.4 50.1 0.4L50.1 0.4ZM50.1-4.05Q53.95-4.05 57.02-5.8 60.1-7.55 61.87-10.63 63.65-13.7 63.65-17.5L63.65-17.5Q63.65-21.3 61.87-24.38 60.1-27.45 57.02-29.2 53.95-30.95 50.1-30.95L50.1-30.95Q46.25-30.95 43.12-29.2 40-27.45 38.22-24.38 36.45-21.3 36.45-17.5L36.45-17.5Q36.45-13.7 38.22-10.63 40-7.55 43.12-5.8 46.25-4.05 50.1-4.05L50.1-4.05ZM100.55-6.3L100.55-17.7 105.34-17.7 105.34-4.05Q102.75-1.9 99.3-0.75 95.84 0.4 92.09 0.4L92.09 0.4Q86.8 0.4 82.55-1.93 78.3-4.25 75.87-8.33 73.45-12.4 73.45-17.5L73.45-17.5Q73.45-22.6 75.87-26.7 78.3-30.8 82.57-33.1 86.84-35.4 92.2-35.4L92.2-35.4Q96.4-35.4 99.82-34.02 103.25-32.65 105.65-30L105.65-30 102.55-26.9Q98.34-30.95 92.4-30.95L92.4-30.95Q88.4-30.95 85.22-29.23 82.05-27.5 80.25-24.43 78.45-21.35 78.45-17.5L78.45-17.5Q78.45-13.7 80.25-10.63 82.05-7.55 85.22-5.8 88.4-4.05 92.34-4.05L92.34-4.05Q97.05-4.05 100.55-6.3L100.55-6.3Z"
                                opacity="1" transform="matrix(1,0,0,1,0,0)" fill="#f9e17e" class="slogan-text-1"
                                data-fill-palette-color="secondary" id="text-1"></path>
                            </svg></g>
                        </svg></g>
                    </svg></g>
                </svg></g>
              <g><svg viewBox="0 0 244.43135999999996 244.43135999999996" height="244.43135999999996"
                  width="244.43135999999996">
                  <g data-palette-color="#f9e17e">
                    <rect width="66.8112384" height="244.43135999999996" fill="#f9e17e" stroke="transparent"
                      data-fill-palette-color="accent" x="0" fill-opacity="0.5"></rect>
                    <rect width="66.8112384" height="244.43135999999996" fill="#f9e17e" stroke="transparent"
                      data-fill-palette-color="accent" x="81.47711999999999" fill-opacity="0.75"></rect>
                    <rect width="66.8112384" height="244.43135999999996" fill="#f9e17e" stroke="transparent"
                      data-fill-palette-color="accent" x="162.95423999999997" fill-opacity="1"></rect>
                  </g>
                </svg></g>
            </svg></g>
          <defs></defs>
        </svg>
        <rect width="395.5199999999999" height="146.34599819112313" fill="none" stroke="none" visibility="hidden">
        </rect>
      </g>
    </svg></g>
</svg>