<svg xmlns="http://www.w3.org/2000/svg" version="1.1" xmlns:xlink="http://www.w3.org/1999/xlink"
  xmlns:svgjs="http://svgjs.dev/svgjs" width="1000" height="146" viewBox="0 0 1000 146">
  <g transform="matrix(1,0,0,1,-0.6060606060606233,-0.14848222450825688)"><svg viewBox="0 0 396 58"
      data-background-color="#f9e17e" preserveAspectRatio="xMidYMid meet" height="146" width="1000"
      xmlns="http://www.w3.org/2000/svg" xmlns:xlink="http://www.w3.org/1999/xlink">
      <g id="tight-bounds" transform="matrix(1,0,0,1,0.2400000000000091,0.05898608918820969)"><svg
          viewBox="0 0 395.52 57.88202782162358" height="57.88202782162358" width="395.52">
          <g><svg viewBox="0 0 477.30238379016953 69.85039911475994" height="57.88202782162358" width="395.52">
              <g transform="matrix(1,0,0,1,81.78238379016953,9.653709284311976)"><svg
                  viewBox="0 0 395.52 50.542980546135986" height="50.542980546135986" width="395.52">
                  <g id="textblocktransform"><svg viewBox="0 0 395.52 50.542980546135986" height="50.542980546135986"
                      width="395.52" id="textblock">
                      <g><svg viewBox="0 0 395.52 50.542980546135986" height="50.542980546135986" width="395.52">
                          <g transform="matrix(1,0,0,1,0,0)"><svg width="395.52" viewBox="5.25 -35.4 280.13 35.8"
                              height="50.542980546135986" data-palette-color="#333333">
                              <path
                                d="M5.25 0L5.25-35 10.25-35 10.25-4.35 29.2-4.35 29.2 0 5.25 0ZM39.95-4.35L60.35-4.35 60.35 0 34.95 0 34.95-35 59.65-35 59.65-30.65 39.95-30.65 39.95-19.9 57.5-19.9 57.5-15.65 39.95-15.65 39.95-4.35ZM94.6 0L90.75-8.75 72.15-8.75 68.3 0 63.15 0 79-35 83.95-35 99.84 0 94.6 0ZM73.9-12.75L89-12.75 81.45-29.9 73.9-12.75ZM128.59-35L133.59-35 118.24 0 113.29 0 97.89-35 103.29-35 115.89-6.25 128.59-35ZM143.04-4.35L163.44-4.35 163.44 0 138.04 0 138.04-35 162.74-35 162.74-30.65 143.04-30.65 143.04-19.9 160.59-19.9 160.59-15.65 143.04-15.65 143.04-4.35ZM184.99 0L184.99-35 189.99-35 189.99-4.35 208.94-4.35 208.94 0 184.99 0ZM229.83 0.4Q224.53 0.4 220.28-1.93 216.03-4.25 213.61-8.35 211.18-12.45 211.18-17.5L211.18-17.5Q211.18-22.55 213.61-26.65 216.03-30.75 220.28-33.08 224.53-35.4 229.83-35.4L229.83-35.4Q235.08-35.4 239.33-33.08 243.58-30.75 245.98-26.68 248.38-22.6 248.38-17.5L248.38-17.5Q248.38-12.4 245.98-8.33 243.58-4.25 239.33-1.93 235.08 0.4 229.83 0.4L229.83 0.4ZM229.83-4.05Q233.68-4.05 236.76-5.8 239.83-7.55 241.61-10.63 243.38-13.7 243.38-17.5L243.38-17.5Q243.38-21.3 241.61-24.38 239.83-27.45 236.76-29.2 233.68-30.95 229.83-30.95L229.83-30.95Q225.98-30.95 222.86-29.2 219.73-27.45 217.96-24.38 216.18-21.3 216.18-17.5L216.18-17.5Q216.18-13.7 217.96-10.63 219.73-7.55 222.86-5.8 225.98-4.05 229.83-4.05L229.83-4.05ZM280.28-6.3L280.28-17.7 285.08-17.7 285.08-4.05Q282.48-1.9 279.03-0.75 275.58 0.4 271.83 0.4L271.83 0.4Q266.53 0.4 262.28-1.93 258.03-4.25 255.6-8.33 253.18-12.4 253.18-17.5L253.18-17.5Q253.18-22.6 255.6-26.7 258.03-30.8 262.31-33.1 266.58-35.4 271.93-35.4L271.93-35.4Q276.13-35.4 279.56-34.02 282.98-32.65 285.38-30L285.38-30 282.28-26.9Q278.08-30.95 272.13-30.95L272.13-30.95Q268.13-30.95 264.95-29.23 261.78-27.5 259.98-24.43 258.18-21.35 258.18-17.5L258.18-17.5Q258.18-13.7 259.98-10.63 261.78-7.55 264.95-5.8 268.13-4.05 272.08-4.05L272.08-4.05Q276.78-4.05 280.28-6.3L280.28-6.3Z"
                                opacity="1" transform="matrix(1,0,0,1,0,0)" fill="#f9e17e" class="wordmark-text-0"
                                data-fill-palette-color="primary" id="text-0"></path>
                            </svg></g>
                        </svg></g>
                    </svg></g>
                </svg></g>
              <g><svg viewBox="0 0 69.85039911475994 69.85039911475994" height="69.85039911475994"
                  width="69.85039911475994">
                  <g data-palette-color="#f9e17e">
                    <rect width="19.09244242470105" height="69.85039911475994" fill="#f9e17e" stroke="transparent"
                      data-fill-palette-color="accent" x="0" fill-opacity="0.5"></rect>
                    <rect width="19.09244242470105" height="69.85039911475994" fill="#f9e17e" stroke="transparent"
                      data-fill-palette-color="accent" x="23.28346637158665" fill-opacity="0.75"></rect>
                    <rect width="19.09244242470105" height="69.85039911475994" fill="#f9e17e" stroke="transparent"
                      data-fill-palette-color="accent" x="46.5669327431733" fill-opacity="1"></rect>
                  </g>
                </svg></g>
            </svg></g>
          <defs></defs>
        </svg>
        <rect width="395.52" height="57.88202782162358" fill="none" stroke="none" visibility="hidden"></rect>
      </g>
    </svg></g>
</svg>